<svg width="32" height="32" viewBox="0 0 32 32" fill="none" xmlns="http://www.w3.org/2000/svg">
    <g clip-path="url(#ehfoyogg9a)">
        <path d="M16 6C9.334 6 3.64 10.147 1.334 16c2.306 5.853 8 10 14.666 10 6.667 0 12.36-4.147 14.667-10-2.307-5.853-8-10-14.667-10zm0 16.667A6.67 6.67 0 0 1 9.334 16 6.67 6.67 0 0 1 16 9.333 6.669 6.669 0 0 1 22.667 16 6.67 6.67 0 0 1 16 22.667zM16 12c-2.213 0-4 1.787-4 4s1.787 4 4 4 4-1.787 4-4-1.787-4-4-4z" fill="#FCB782"/>
    </g>
    <defs>
        <clipPath id="ehfoyogg9a">
            <path fill="#fff" d="M0 0h32v32H0z"/>
        </clipPath>
    </defs>
</svg>
